<?xml version="1.0" standalone="no"?>
<!DOCTYPE svg PUBLIC "-//W3C//DTD SVG 20010904//EN"
 "http://www.w3.org/TR/2001/REC-SVG-20010904/DTD/svg10.dtd">
<svg version="1.0" xmlns="http://www.w3.org/2000/svg"
 width="257.000000pt" height="257.000000pt" viewBox="0 0 257.000000 257.000000"
 preserveAspectRatio="xMidYMid meet">
<metadata>
Created by potrace 1.14, written by Peter Selinger 2001-2017
</metadata>
<g transform="translate(0.000000,257.000000) scale(0.100000,-0.100000)"
fill="#000000" stroke="none">
<path d="M1138 2565 c-2 -1 -23 -5 -48 -8 -57 -7 -190 -42 -256 -66 -427 -160
-750 -555 -817 -1001 -20 -131 -15 -339 11 -460 95 -442 391 -785 819 -946 34
-13 72 -26 85 -28 13 -3 52 -12 88 -20 36 -9 73 -15 83 -16 16 0 17 35 17 588
l0 587 -297 0 -298 0 -3 152 -3 152 288 0 c159 0 294 0 301 0 9 1 12 73 12
326 l0 325 28 1 c31 1 272 1 287 0 7 -1 10 -115 10 -326 0 -212 3 -325 10
-326 5 0 139 0 298 -1 158 0 288 -4 288 -9 6 -39 4 -276 -2 -284 -5 -7 -110
-10 -294 -10 -157 0 -289 -2 -293 -5 -4 -3 -7 -267 -7 -588 l0 -583 50 7 c130
17 317 87 447 166 499 303 732 893 572 1447 -143 491 -543 842 -1049 920 -54
8 -319 13 -327 6z"/>
</g>
</svg>
